<?xml version="1.0" encoding="UTF-8"?>
<!DOCTYPE svg PUBLIC "-//W3C//DTD SVG 1.1//EN" "http://www.w3.org/Graphics/SVG/1.1/DTD/svg11.dtd">
<svg xmlns="http://www.w3.org/2000/svg" version="1.1" width="192px" height="192px" style="shape-rendering:geometricPrecision; text-rendering:geometricPrecision; image-rendering:optimizeQuality; fill-rule:evenodd; clip-rule:evenodd" xmlns:xlink="http://www.w3.org/1999/xlink">
<g><path style="opacity:1" fill="#fefeff" d="M -0.5,-0.5 C 63.5,-0.5 127.5,-0.5 191.5,-0.5C 191.5,63.5 191.5,127.5 191.5,191.5C 127.5,191.5 63.5,191.5 -0.5,191.5C -0.5,127.5 -0.5,63.5 -0.5,-0.5 Z"/></g>
<g><path style="opacity:1" fill="#3233ff" d="M 71.5,83.5 C 71.5,91.5 71.5,99.5 71.5,107.5C 67.5,107.5 63.5,107.5 59.5,107.5C 59.5,103.5 59.5,99.5 59.5,95.5C 55.5,95.5 51.5,95.5 47.5,95.5C 47.5,107.5 47.5,119.5 47.5,131.5C 43.5,131.5 39.5,131.5 35.5,131.5C 35.5,103.5 35.5,75.5 35.5,47.5C 51.5,47.5 67.5,47.5 83.5,47.5C 83.5,59.5 83.5,71.5 83.5,83.5C 79.5,83.5 75.5,83.5 71.5,83.5 Z"/></g>
<g><path style="opacity:1" fill="#3233ff" d="M 143.5,59.5 C 135.5,59.5 127.5,59.5 119.5,59.5C 119.5,79.5 119.5,99.5 119.5,119.5C 127.5,119.5 135.5,119.5 143.5,119.5C 143.5,123.5 143.5,127.5 143.5,131.5C 131.5,131.5 119.5,131.5 107.5,131.5C 107.5,103.5 107.5,75.5 107.5,47.5C 119.5,47.5 131.5,47.5 143.5,47.5C 143.5,51.5 143.5,55.5 143.5,59.5 Z"/></g>
<g><path style="opacity:1" fill="#fdfdff" d="M 71.5,83.5 C 63.5,83.5 55.5,83.5 47.5,83.5C 47.5,75.5 47.5,67.5 47.5,59.5C 55.5,59.5 63.5,59.5 71.5,59.5C 71.5,67.5 71.5,75.5 71.5,83.5 Z"/></g>
<g><path style="opacity:1" fill="#fefeff" d="M 143.5,59.5 C 143.5,79.5 143.5,99.5 143.5,119.5C 135.5,119.5 127.5,119.5 119.5,119.5C 119.5,99.5 119.5,79.5 119.5,59.5C 127.5,59.5 135.5,59.5 143.5,59.5 Z"/></g>
<g><path style="opacity:1" fill="#3233ff" d="M 143.5,59.5 C 147.5,59.5 151.5,59.5 155.5,59.5C 155.5,79.5 155.5,99.5 155.5,119.5C 151.5,119.5 147.5,119.5 143.5,119.5C 143.5,99.5 143.5,79.5 143.5,59.5 Z"/></g>
<g><path style="opacity:1" fill="#3334ff" d="M 71.5,107.5 C 75.5,107.5 79.5,107.5 83.5,107.5C 83.5,115.5 83.5,123.5 83.5,131.5C 79.5,131.5 75.5,131.5 71.5,131.5C 71.5,123.5 71.5,115.5 71.5,107.5 Z"/></g>
</svg>
