<?xml version="1.0"?><svg version="1.2" baseProfile="tiny-ps" viewBox="0 0 192 192" xmlns="http://www.w3.org/2000/svg" xmlns:xlink="http://www.w3.org/1999/xlink"><title>RD</title><g><g fill="#fff" transform="matrix(.1 0 0 -.1 0 192)"><path d="M0 960V0h1920v1920H0V960z"/></g><g fill="#f9f9ff" transform="matrix(.1 0 0 -.1 0 192)"><path d="M355 1438c-3-7-4-200-3-428l3-415h130l3 178 2 177h99l3-57 3-58 57-3 57-3 3-117 3-117h130v250l-57 3-58 3v218l58 3 57 3v370l-243 3-242 2-5-12zm355-238v-110H490v220h220v-110zm365 238c-3-7-4-200-3-428l3-415h370l3 57 3 57 57 3 57 3v610l-57 3-57 3-3 57-3 57-183 3-182 2-5-12zm355-418V730h-220v580h220v-290z"/></g><g fill="#33f" transform="matrix(.1 0 0 -.1 0 192)"><path d="M360 1020V600h120v360h120V840h120V600h120v240H720v240h120v360H360v-420zm360 180v-120H480v240h240v-120zm360-180V600h360v120h120v600h-120v120h-360v-420zm360 0V720h-240v600h240v-300z"/></g></g></svg>